<?xml version="1.0" encoding="iso-8859-1"?>
<!-- Uploaded to: SVG Repo, www.svgrepo.com, Generator: SVG Repo Mixer Tools -->
<svg fill="#000000" height="800px" width="800px" version="1.1" id="Layer_1" xmlns="http://www.w3.org/2000/svg" xmlns:xlink="http://www.w3.org/1999/xlink" 
	 viewBox="0 0 512.001 512.001" xml:space="preserve">
<g>
	<g>
		<path d="M129.747,78.153c-33.969,0-61.605,27.636-61.605,61.605s27.636,61.605,61.605,61.605s61.604-27.636,61.604-61.605
			S163.714,78.153,129.747,78.153z M129.747,185.69c-25.327,0-45.932-20.605-45.932-45.932c0-25.327,20.605-45.932,45.932-45.932
			s45.931,20.605,45.931,45.932S155.072,185.69,129.747,185.69z"/>
	</g>
</g>
<g>
	<g>
		<path d="M129.747,41.278c-4.328,0-7.837,3.508-7.837,7.837v11.494c0,4.329,3.509,7.837,7.837,7.837s7.837-3.508,7.837-7.837
			V49.115C137.583,44.786,134.074,41.278,129.747,41.278z"/>
	</g>
</g>
<g>
	<g>
		<path d="M129.747,211.071c-4.328,0-7.837,3.509-7.837,7.837v11.494c0,4.329,3.509,7.837,7.837,7.837s7.837-3.508,7.837-7.837
			v-11.494C137.583,214.578,134.074,211.071,129.747,211.071z"/>
	</g>
</g>
<g>
	<g>
		<path d="M199.381,70.123c-3.06-3.059-8.023-3.059-11.082,0l-8.127,8.127c-3.06,3.062-3.06,8.023,0,11.083
			c1.53,1.529,3.535,2.295,5.541,2.295c2.005,0,4.011-0.765,5.541-2.295l8.127-8.127C202.442,78.145,202.442,73.183,199.381,70.123z
			"/>
	</g>
</g>
<g>
	<g>
		<path d="M79.32,190.184c-3.059-3.059-8.022-3.059-11.082,0l-8.127,8.127c-3.06,3.061-3.06,8.023,0,11.083
			c1.53,1.53,3.536,2.295,5.541,2.295c2.005,0,4.011-0.765,5.541-2.295l8.127-8.127C82.38,198.205,82.38,193.244,79.32,190.184z"/>
	</g>
</g>
<g>
	<g>
		<path d="M220.39,131.921h-11.494c-4.328,0-7.837,3.508-7.837,7.837c0,4.329,3.509,7.837,7.837,7.837h11.494
			c4.328,0,7.837-3.508,7.837-7.837C228.226,135.429,224.717,131.921,220.39,131.921z"/>
	</g>
</g>
<g>
	<g>
		<path d="M50.597,131.921H39.103c-4.328,0-7.837,3.508-7.837,7.837c0,4.329,3.509,7.837,7.837,7.837h11.494
			c4.328,0,7.837-3.508,7.837-7.837C58.434,135.429,54.925,131.921,50.597,131.921z"/>
	</g>
</g>
<g>
	<g>
		<path d="M199.381,198.311l-8.127-8.127c-3.06-3.059-8.023-3.059-11.082,0c-3.06,3.061-3.06,8.023,0,11.083l8.127,8.127
			c1.53,1.53,3.536,2.295,5.541,2.295s4.011-0.765,5.541-2.295C202.442,206.332,202.442,201.371,199.381,198.311z"/>
	</g>
</g>
<g>
	<g>
		<path d="M79.32,78.249l-8.127-8.127c-3.06-3.059-8.023-3.059-11.082,0c-3.06,3.061-3.06,8.023,0,11.083l8.127,8.127
			c1.53,1.53,3.536,2.295,5.541,2.295s4.011-0.765,5.541-2.295C82.38,86.271,82.38,81.31,79.32,78.249z"/>
	</g>
</g>
<g>
	<g>
		<path d="M504.153,455.049H344.809v-61.171c2.178-0.516,4.281-1.342,6.231-2.482l149.772-87.792
			c5.212-3.055,8.923-7.957,10.448-13.805c1.524-5.846,0.681-11.936-2.373-17.145c-6.304-10.759-20.187-14.385-30.952-8.077
			l-17.273,10.125l-5.34-12.965c-1.649-4.001-6.227-5.905-10.232-4.259c-4.001,1.65-5.908,6.231-4.259,10.232l8.766,21.265
			l0.472,1.158c1.306,3.17,0.417,6.786-2.2,8.991l-55.925,46.908c-1.605,1.347-3.637,1.988-5.72,1.806s-3.969-1.166-5.325-2.783
			c-1.648-1.958-2.227-4.614-1.547-7.105c0.013-0.043,0.023-0.087,0.034-0.13c0.435-1.482,1.292-2.792,2.488-3.795l47.124-39.538
			c2.616-2.194,3.51-5.829,2.209-8.987l-15.412-37.428c-1.093-2.655-3.551-4.5-6.405-4.808c-2.858-0.295-5.65,0.971-7.285,3.331
			l-67.775,97.9c-1.689,2.444-4.573,3.71-7.519,3.298l-122.44-17.178c-0.841-0.115-1.696-0.097-2.531,0.058l-99.301,18.59H79.091
			c-0.365-0.479-0.684-0.997-0.934-1.55l-16.148-36.224c-0.852-1.906-0.91-4.031-0.161-5.984c0.749-1.957,2.217-3.505,4.125-4.357
			c3.95-1.759,8.595,0.025,10.355,3.963l11.107,24.91c1.477,3.312,5.033,5.184,8.599,4.511l105.445-19.739
			c0.821-0.154,1.683-0.171,2.532-0.056l38.552,5.407c0.015,0.001,0.03,0.004,0.045,0.006l76.809,10.773
			c2.936,0.412,5.847-0.865,7.533-3.301l77.311-111.682c0.039-0.054,0.076-0.11,0.114-0.165l1.237-1.787
			c1.641-2.365,4.431-3.639,7.286-3.331c2.859,0.308,5.314,2.149,6.408,4.809l4.702,11.4c1.65,4.002,6.235,5.909,10.232,4.257
			c4.001-1.65,5.907-6.232,4.257-10.232l-4.7-11.394c-3.28-7.969-10.643-13.495-19.216-14.421
			c-8.563-0.919-16.931,2.898-21.85,9.987l-1.058,1.529l-39.124,45.099l-54.275-23.313c-5.763-2.489-12.15-2.58-17.986-0.253
			c-5.842,2.327-10.425,6.791-12.903,12.566c-2.479,5.769-2.563,12.159-0.236,17.992c2.328,5.831,6.786,10.408,12.555,12.886
			l51.633,22.184l-10.802,15.604l-92.123-49.653c-6.944-3.743-15.248-3.765-22.215-0.051l-13.329,7.105
			c-3.819,2.035-5.265,6.781-3.23,10.601c2.036,3.82,6.782,5.267,10.601,3.23l13.328-7.104c2.324-1.238,5.093-1.233,7.406,0.017
			l69.697,37.565l-44.65-6.262l-25.089-13.522c-2.308-1.242-5.089-1.251-7.404-0.017l-15.405,8.212l-51.349,9.613l12.06-6.429
			c3.819-2.035,5.265-6.782,3.229-10.601c-2.035-3.818-6.783-5.265-10.601-3.229l-22.729,12.117l-6.632-9.952
			c-3.483-5.226-8.792-8.783-14.949-10.017c-6.159-1.234-12.428,0.005-17.653,3.489c-2.271,1.513-4.17,3.369-5.723,5.435
			c-6.65-5.253-15.924-6.744-24.184-3.068c-5.735,2.561-10.132,7.201-12.379,13.063c-2.249,5.867-2.075,12.256,0.485,17.982
			l13.99,31.384H22.622C10.148,349.266,0,359.414,0,371.888c0,12.469,10.148,22.611,22.622,22.611h28.619v60.551H7.837
			c-4.328,0-7.837,3.508-7.837,7.837s3.509,7.837,7.837,7.837h51.241h24.168h229.559h24.168h167.18c4.329,0,7.837-3.508,7.837-7.837
			S508.482,455.049,504.153,455.049z M466.089,289.69l19.769-11.59c1.602-0.938,3.47-1.197,5.269-0.727
			c1.795,0.467,3.299,1.606,4.237,3.207c0.938,1.6,1.197,3.47,0.728,5.266c-0.468,1.795-1.607,3.3-3.207,4.238l-33.313,19.527
			C464.814,304.293,467.171,296.91,466.089,289.69z M285.89,257.17c-1.924-0.826-3.41-2.352-4.186-4.295
			c-0.775-1.943-0.747-4.072,0.081-5.998c0.826-1.927,2.354-3.416,4.301-4.19c1.939-0.772,4.064-0.746,5.988,0.088l57.464,24.683
			l-9.102,13.148L285.89,257.17z M98.19,297.511c1.742-1.161,3.829-1.573,5.883-1.163c2.052,0.412,3.823,1.598,4.984,3.339
			l9.754,14.64l-16.745,3.135l-6.052-9.082C93.618,304.784,94.594,299.907,98.19,297.511z M406.787,267.366l7.742,18.8
			l-42.731,35.853c-2.791,2.344-4.966,5.255-6.41,8.539l-3.95,2.314L406.787,267.366z M203.463,346.317l21.019,2.949h-36.77
			L203.463,346.317z M75.409,455.049h-8.495v-60.551h8.495V455.049z M329.136,455.049h-8.495v-60.551h8.495V455.049z
			 M339.606,378.826H211.065c-4.328,0-7.837,3.508-7.837,7.837s3.509,7.837,7.837,7.837h93.903v60.551H91.082v-60.551h75.398
			c4.328,0,7.837-3.508,7.837-7.837s-3.509-7.837-7.837-7.837H83.245H59.077H22.622c-3.832,0-6.948-3.112-6.948-6.938
			c0-3.832,3.117-6.948,6.948-6.948h80.612c0.007,0,0.016,0.001,0.023,0.001s0.015-0.001,0.022-0.001h232.315
			c1.393,0,2.761-0.371,3.962-1.075l25.574-14.987c0.911,2.244,2.168,4.36,3.765,6.258c1.512,1.804,3.253,3.347,5.168,4.6
			l-30.943,18.137C342.053,378.496,340.838,378.826,339.606,378.826z"/>
	</g>
</g>
<g>
	<g>
		<path d="M413.967,112.951c-21.164,0-38.384,17.219-38.384,38.383c0,21.164,17.219,38.384,38.384,38.384
			s38.383-17.219,38.383-38.384C452.349,130.169,435.13,112.951,413.967,112.951z M413.967,174.043
			c-12.523,0-22.71-10.188-22.71-22.71c-0.001-12.522,10.186-22.709,22.71-22.709c12.522,0,22.709,10.188,22.709,22.709
			C436.676,163.856,426.488,174.043,413.967,174.043z"/>
	</g>
</g>
</svg>